<svg xmlns="http://www.w3.org/2000/svg" version="1.1" xmlns:xlink="http://www.w3.org/1999/xlink" xmlns:svgjs="http://svgjs.dev/svgjs" width="1440" height="543" preserveAspectRatio="none" viewBox="0 0 1440 543"><g mask="url(&quot;#SvgjsMask1006&quot;)" fill="none"><rect width="1440" height="543" x="0" y="0" fill="url(&quot;#SvgjsLinearGradient1007&quot;)"></rect><path d="M0 505.82L10 448.99L20 458.6L30 433.99L40 432.73L50 404.91L60 417.38L70 428.66L80 476.63L90 422.34L100 411.38L110 444.77L120 485.51L130 530.58L140 500.79L150 492.3L160 455.74L170 504.81L180 473.88L190 512.1L200 460L210 455.42L220 477.79L230 514.14L240 497.81L250 537.09L260 474.16L270 495.35L280 453.98L290 394.9L300 342.04L310 297.98L320 267.5L330 200L340 168.37L350 226.3L360 238.97L370 206.75L380 274.62L390 296.57L400 352.75L410 402.81L420 390.13L430 335.58L440 271.25L450 314.14L460 343.86L470 388.78L480 334.82L490 370.65L500 335.92L510 321.48L520 348.55L530 347.11L540 367.88L550 413.93L560 347.1L570 291.8L580 312.93L590 325.57L600 333.65L610 361.39L620 346.04L630 319.37L640 351.2L650 300.19L660 350.69L670 320.35L680 333.41L690 276.13L700 208.39L710 274.5L720 311.06L730 320.25L740 346.06L750 362.63L760 378.21L770 358.95L780 379.29L790 432.26L800 499.55L810 539.63L820 535.53L830 468.75L840 534L850 510.03L860 457.51L870 445.76L880 400.91L890 346.81L900 381.76L910 344.08L920 322.69L930 386.48L940 378.46L950 387.74L960 414.82L970 447.31L980 501.43L990 465.18L1000 491.55L1010 513.55L1020 481.12L1030 496.14L1040 534.06L1050 524.88L1060 514.93L1070 455.7L1080 445.13L1090 422.49L1100 473.44L1110 481.24L1120 496.47L1130 539.34L1140 514.97L1150 483.45L1160 481.67L1170 418.3L1180 371.14L1190 374.41L1200 421.88L1210 422.32L1220 395.39L1230 435.4L1240 444.6L1250 467.92L1260 525.28L1270 465.03L1280 426.65L1290 446.7L1300 392.69L1310 391.56L1320 361.13L1330 299.38L1340 353.31L1350 306.68L1360 255.78L1370 272.51L1380 324.11L1390 358.34L1400 292.28L1410 273.53L1420 306.25L1430 278.06L1440 223.12" stroke="#224b75" stroke-width="2"></path><path d="M0 505.82L10 448.99L20 458.6L30 433.99L40 432.73L50 404.91L60 417.38L70 428.66L80 476.63L90 422.34L100 411.38L110 444.77L120 485.51L130 530.58L140 500.79L150 492.3L160 455.74L170 504.81L180 473.88L190 512.1L200 460L210 455.42L220 477.79L230 514.14L240 497.81L250 537.09L260 474.16L270 495.35L280 453.98L290 394.9L300 342.04L310 297.98L320 267.5L330 200L340 168.37L350 226.3L360 238.97L370 206.75L380 274.62L390 296.57L400 352.75L410 402.81L420 390.13L430 335.58L440 271.25L450 314.14L460 343.86L470 388.78L480 334.82L490 370.65L500 335.92L510 321.48L520 348.55L530 347.11L540 367.88L550 413.93L560 347.1L570 291.8L580 312.93L590 325.57L600 333.65L610 361.39L620 346.04L630 319.37L640 351.2L650 300.19L660 350.69L670 320.35L680 333.41L690 276.13L700 208.39L710 274.5L720 311.06L730 320.25L740 346.06L750 362.63L760 378.21L770 358.95L780 379.29L790 432.26L800 499.55L810 539.63L820 535.53L830 468.75L840 534L850 510.03L860 457.51L870 445.76L880 400.91L890 346.81L900 381.76L910 344.08L920 322.69L930 386.48L940 378.46L950 387.74L960 414.82L970 447.31L980 501.43L990 465.18L1000 491.55L1010 513.55L1020 481.12L1030 496.14L1040 534.06L1050 524.88L1060 514.93L1070 455.7L1080 445.13L1090 422.49L1100 473.44L1110 481.24L1120 496.47L1130 539.34L1140 514.97L1150 483.45L1160 481.67L1170 418.3L1180 371.14L1190 374.41L1200 421.88L1210 422.32L1220 395.39L1230 435.4L1240 444.6L1250 467.92L1260 525.28L1270 465.03L1280 426.65L1290 446.7L1300 392.69L1310 391.56L1320 361.13L1330 299.38L1340 353.31L1350 306.68L1360 255.78L1370 272.51L1380 324.11L1390 358.34L1400 292.28L1410 273.53L1420 306.25L1430 278.06L1440 223.12L1440 543L0 543z" fill="url(&quot;#SvgjsLinearGradient1008&quot;)"></path></g><defs><mask id="SvgjsMask1006"><rect width="1440" height="543" fill="#ffffff"></rect></mask><linearGradient x1="15.57%" y1="-41.3%" x2="84.43%" y2="141.3%" gradientUnits="userSpaceOnUse" id="SvgjsLinearGradient1007"><stop stop-color="#0e2a47" offset="0"></stop><stop stop-color="#00459e" offset="1"></stop></linearGradient><linearGradient x1="50%" y1="0%" x2="50%" y2="100%" id="SvgjsLinearGradient1008"><stop stop-opacity="0.65" stop-color="#224b75" offset="0"></stop><stop stop-opacity="0" stop-color="#508dcc" offset="0.8"></stop></linearGradient></defs></svg>